<mxfile host="app.diagrams.net" modified="2024-05-19T21:11:52.336Z" agent="Mozilla/5.0 (Windows NT 10.0; Win64; x64) AppleWebKit/537.36 (KHTML, like Gecko) Chrome/124.0.0.0 Safari/537.36" etag="CYEETGmd1YF9fgJOKszP" version="24.4.4" type="google">
  <diagram id="C5RBs43oDa-KdzZeNtuy" name="Page-1">
    <mxGraphModel grid="1" page="1" gridSize="10" guides="1" tooltips="1" connect="1" arrows="1" fold="1" pageScale="1" pageWidth="827" pageHeight="1169" math="0" shadow="0">
      <root>
        <mxCell id="WIyWlLk6GJQsqaUBKTNV-0" />
        <mxCell id="WIyWlLk6GJQsqaUBKTNV-1" parent="WIyWlLk6GJQsqaUBKTNV-0" />
        <mxCell id="6Nvl_KIDncAve11HKfWS-11" style="edgeStyle=orthogonalEdgeStyle;rounded=0;orthogonalLoop=1;jettySize=auto;html=1;exitX=1;exitY=0;exitDx=0;exitDy=0;entryX=0.5;entryY=1;entryDx=0;entryDy=0;" edge="1" parent="WIyWlLk6GJQsqaUBKTNV-1" source="u2L9WDZnZTv7yTqLHQJL-0" target="6Nvl_KIDncAve11HKfWS-4">
          <mxGeometry relative="1" as="geometry" />
        </mxCell>
        <mxCell id="6Nvl_KIDncAve11HKfWS-28" style="edgeStyle=orthogonalEdgeStyle;rounded=0;orthogonalLoop=1;jettySize=auto;html=1;exitX=0;exitY=0;exitDx=0;exitDy=0;entryX=1;entryY=0.5;entryDx=0;entryDy=0;" edge="1" parent="WIyWlLk6GJQsqaUBKTNV-1" source="u2L9WDZnZTv7yTqLHQJL-0" target="6Nvl_KIDncAve11HKfWS-27">
          <mxGeometry relative="1" as="geometry" />
        </mxCell>
        <mxCell id="dW6EWE0Wd8XrFZfCWDjQ-43" style="edgeStyle=none;rounded=0;orthogonalLoop=1;jettySize=auto;html=1;exitX=0;exitY=1;exitDx=0;exitDy=0;entryX=0.5;entryY=0;entryDx=0;entryDy=0;elbow=vertical;" edge="1" parent="WIyWlLk6GJQsqaUBKTNV-1" source="u2L9WDZnZTv7yTqLHQJL-0" target="6Nvl_KIDncAve11HKfWS-38">
          <mxGeometry relative="1" as="geometry" />
        </mxCell>
        <mxCell id="dW6EWE0Wd8XrFZfCWDjQ-44" style="edgeStyle=none;rounded=0;orthogonalLoop=1;jettySize=auto;html=1;exitX=0.5;exitY=1;exitDx=0;exitDy=0;entryX=0.5;entryY=0;entryDx=0;entryDy=0;elbow=vertical;" edge="1" parent="WIyWlLk6GJQsqaUBKTNV-1" source="u2L9WDZnZTv7yTqLHQJL-0" target="dW6EWE0Wd8XrFZfCWDjQ-36">
          <mxGeometry relative="1" as="geometry" />
        </mxCell>
        <mxCell id="u2L9WDZnZTv7yTqLHQJL-80" style="edgeStyle=orthogonalEdgeStyle;rounded=0;orthogonalLoop=1;jettySize=auto;html=1;exitX=1;exitY=0.5;exitDx=0;exitDy=0;entryX=0;entryY=0.5;entryDx=0;entryDy=0;" edge="1" parent="WIyWlLk6GJQsqaUBKTNV-1" source="u2L9WDZnZTv7yTqLHQJL-0" target="u2L9WDZnZTv7yTqLHQJL-79">
          <mxGeometry relative="1" as="geometry" />
        </mxCell>
        <mxCell id="u2L9WDZnZTv7yTqLHQJL-0" value="" style="rounded=1;whiteSpace=wrap;html=1;" vertex="1" parent="WIyWlLk6GJQsqaUBKTNV-1">
          <mxGeometry x="-602.5" y="710" width="120" height="60" as="geometry" />
        </mxCell>
        <mxCell id="6Nvl_KIDncAve11HKfWS-24" style="edgeStyle=orthogonalEdgeStyle;rounded=0;orthogonalLoop=1;jettySize=auto;html=1;exitX=1;exitY=0.5;exitDx=0;exitDy=0;entryX=0;entryY=0.5;entryDx=0;entryDy=0;" edge="1" parent="WIyWlLk6GJQsqaUBKTNV-1" source="u2L9WDZnZTv7yTqLHQJL-1" target="6Nvl_KIDncAve11HKfWS-20">
          <mxGeometry relative="1" as="geometry" />
        </mxCell>
        <mxCell id="u2L9WDZnZTv7yTqLHQJL-46" style="edgeStyle=orthogonalEdgeStyle;rounded=0;orthogonalLoop=1;jettySize=auto;html=1;exitX=0;exitY=0.5;exitDx=0;exitDy=0;entryX=1;entryY=0.5;entryDx=0;entryDy=0;" edge="1" parent="WIyWlLk6GJQsqaUBKTNV-1" source="u2L9WDZnZTv7yTqLHQJL-1" target="u2L9WDZnZTv7yTqLHQJL-44">
          <mxGeometry relative="1" as="geometry" />
        </mxCell>
        <mxCell id="u2L9WDZnZTv7yTqLHQJL-60" style="edgeStyle=orthogonalEdgeStyle;rounded=0;orthogonalLoop=1;jettySize=auto;html=1;exitX=0;exitY=0;exitDx=0;exitDy=0;entryX=0.5;entryY=1;entryDx=0;entryDy=0;" edge="1" parent="WIyWlLk6GJQsqaUBKTNV-1" source="u2L9WDZnZTv7yTqLHQJL-1" target="u2L9WDZnZTv7yTqLHQJL-58">
          <mxGeometry relative="1" as="geometry" />
        </mxCell>
        <mxCell id="u2L9WDZnZTv7yTqLHQJL-69" style="edgeStyle=orthogonalEdgeStyle;rounded=0;orthogonalLoop=1;jettySize=auto;html=1;exitX=0.5;exitY=0;exitDx=0;exitDy=0;entryX=0.5;entryY=1;entryDx=0;entryDy=0;" edge="1" parent="WIyWlLk6GJQsqaUBKTNV-1" source="u2L9WDZnZTv7yTqLHQJL-1" target="u2L9WDZnZTv7yTqLHQJL-66">
          <mxGeometry relative="1" as="geometry" />
        </mxCell>
        <mxCell id="6Nvl_KIDncAve11HKfWS-42" style="edgeStyle=orthogonalEdgeStyle;rounded=0;orthogonalLoop=1;jettySize=auto;html=1;exitX=0.25;exitY=1;exitDx=0;exitDy=0;entryX=0.5;entryY=0;entryDx=0;entryDy=0;" edge="1" parent="WIyWlLk6GJQsqaUBKTNV-1" source="u2L9WDZnZTv7yTqLHQJL-1" target="u2L9WDZnZTv7yTqLHQJL-54">
          <mxGeometry relative="1" as="geometry" />
        </mxCell>
        <mxCell id="6Nvl_KIDncAve11HKfWS-69" style="edgeStyle=orthogonalEdgeStyle;rounded=0;orthogonalLoop=1;jettySize=auto;html=1;exitX=1;exitY=0;exitDx=0;exitDy=0;entryX=0;entryY=0.5;entryDx=0;entryDy=0;" edge="1" parent="WIyWlLk6GJQsqaUBKTNV-1" source="u2L9WDZnZTv7yTqLHQJL-1" target="6Nvl_KIDncAve11HKfWS-67">
          <mxGeometry relative="1" as="geometry" />
        </mxCell>
        <mxCell id="6Nvl_KIDncAve11HKfWS-78" style="edgeStyle=orthogonalEdgeStyle;rounded=0;orthogonalLoop=1;jettySize=auto;html=1;exitX=0.75;exitY=0;exitDx=0;exitDy=0;entryX=0.5;entryY=1;entryDx=0;entryDy=0;" edge="1" parent="WIyWlLk6GJQsqaUBKTNV-1" source="u2L9WDZnZTv7yTqLHQJL-1" target="6Nvl_KIDncAve11HKfWS-76">
          <mxGeometry relative="1" as="geometry" />
        </mxCell>
        <mxCell id="dW6EWE0Wd8XrFZfCWDjQ-52" style="edgeStyle=orthogonalEdgeStyle;rounded=0;orthogonalLoop=1;jettySize=auto;html=1;exitX=0.75;exitY=1;exitDx=0;exitDy=0;elbow=vertical;" edge="1" parent="WIyWlLk6GJQsqaUBKTNV-1" source="u2L9WDZnZTv7yTqLHQJL-1" target="dW6EWE0Wd8XrFZfCWDjQ-50">
          <mxGeometry relative="1" as="geometry" />
        </mxCell>
        <mxCell id="u2L9WDZnZTv7yTqLHQJL-1" value="" style="rounded=1;whiteSpace=wrap;html=1;" vertex="1" parent="WIyWlLk6GJQsqaUBKTNV-1">
          <mxGeometry x="-562.5" y="415" width="115" height="55" as="geometry" />
        </mxCell>
        <mxCell id="6Nvl_KIDncAve11HKfWS-55" style="edgeStyle=orthogonalEdgeStyle;rounded=0;orthogonalLoop=1;jettySize=auto;html=1;exitX=0;exitY=0;exitDx=0;exitDy=0;entryX=0;entryY=1;entryDx=0;entryDy=0;" edge="1" parent="WIyWlLk6GJQsqaUBKTNV-1" source="u2L9WDZnZTv7yTqLHQJL-4" target="6Nvl_KIDncAve11HKfWS-51">
          <mxGeometry relative="1" as="geometry" />
        </mxCell>
        <mxCell id="6Nvl_KIDncAve11HKfWS-56" style="edgeStyle=orthogonalEdgeStyle;rounded=0;orthogonalLoop=1;jettySize=auto;html=1;exitX=0.5;exitY=0;exitDx=0;exitDy=0;entryX=1;entryY=1;entryDx=0;entryDy=0;" edge="1" parent="WIyWlLk6GJQsqaUBKTNV-1" source="u2L9WDZnZTv7yTqLHQJL-4" target="6Nvl_KIDncAve11HKfWS-49">
          <mxGeometry relative="1" as="geometry" />
        </mxCell>
        <mxCell id="6Nvl_KIDncAve11HKfWS-61" style="edgeStyle=orthogonalEdgeStyle;rounded=0;orthogonalLoop=1;jettySize=auto;html=1;exitX=0.75;exitY=0;exitDx=0;exitDy=0;entryX=0.5;entryY=1;entryDx=0;entryDy=0;" edge="1" parent="WIyWlLk6GJQsqaUBKTNV-1" source="u2L9WDZnZTv7yTqLHQJL-4" target="6Nvl_KIDncAve11HKfWS-57">
          <mxGeometry relative="1" as="geometry" />
        </mxCell>
        <mxCell id="6Nvl_KIDncAve11HKfWS-62" style="edgeStyle=orthogonalEdgeStyle;rounded=0;orthogonalLoop=1;jettySize=auto;html=1;exitX=1;exitY=0;exitDx=0;exitDy=0;entryX=0;entryY=0.5;entryDx=0;entryDy=0;" edge="1" parent="WIyWlLk6GJQsqaUBKTNV-1" source="u2L9WDZnZTv7yTqLHQJL-4" target="6Nvl_KIDncAve11HKfWS-48">
          <mxGeometry relative="1" as="geometry" />
        </mxCell>
        <mxCell id="6Nvl_KIDncAve11HKfWS-66" style="edgeStyle=orthogonalEdgeStyle;rounded=0;orthogonalLoop=1;jettySize=auto;html=1;exitX=1;exitY=0.25;exitDx=0;exitDy=0;entryX=0;entryY=0.5;entryDx=0;entryDy=0;" edge="1" parent="WIyWlLk6GJQsqaUBKTNV-1" source="u2L9WDZnZTv7yTqLHQJL-4" target="6Nvl_KIDncAve11HKfWS-64">
          <mxGeometry relative="1" as="geometry" />
        </mxCell>
        <mxCell id="6Nvl_KIDncAve11HKfWS-87" style="edgeStyle=orthogonalEdgeStyle;rounded=0;orthogonalLoop=1;jettySize=auto;html=1;exitX=0.75;exitY=1;exitDx=0;exitDy=0;entryX=0;entryY=0.5;entryDx=0;entryDy=0;" edge="1" parent="WIyWlLk6GJQsqaUBKTNV-1" source="u2L9WDZnZTv7yTqLHQJL-4" target="u2L9WDZnZTv7yTqLHQJL-87">
          <mxGeometry relative="1" as="geometry" />
        </mxCell>
        <mxCell id="xt8_wOZUKc_BIjXcb3N4-2" style="edgeStyle=orthogonalEdgeStyle;rounded=0;orthogonalLoop=1;jettySize=auto;html=1;exitX=0;exitY=0.25;exitDx=0;exitDy=0;" edge="1" parent="WIyWlLk6GJQsqaUBKTNV-1" source="xt8_wOZUKc_BIjXcb3N4-3">
          <mxGeometry relative="1" as="geometry">
            <mxPoint x="-380" y="280" as="targetPoint" />
          </mxGeometry>
        </mxCell>
        <mxCell id="u2L9WDZnZTv7yTqLHQJL-4" value="" style="rounded=1;whiteSpace=wrap;html=1;" vertex="1" parent="WIyWlLk6GJQsqaUBKTNV-1">
          <mxGeometry x="-335" y="270" width="110" height="50" as="geometry" />
        </mxCell>
        <mxCell id="u2L9WDZnZTv7yTqLHQJL-6" value="Responsável" style="text;html=1;align=center;verticalAlign=middle;whiteSpace=wrap;rounded=0;" vertex="1" parent="WIyWlLk6GJQsqaUBKTNV-1">
          <mxGeometry x="-572.5" y="725" width="60" height="30" as="geometry" />
        </mxCell>
        <mxCell id="u2L9WDZnZTv7yTqLHQJL-7" value="BioMédico" style="text;html=1;align=center;verticalAlign=middle;whiteSpace=wrap;rounded=0;" vertex="1" parent="WIyWlLk6GJQsqaUBKTNV-1">
          <mxGeometry x="-310" y="280" width="60" height="30" as="geometry" />
        </mxCell>
        <mxCell id="u2L9WDZnZTv7yTqLHQJL-26" style="edgeStyle=orthogonalEdgeStyle;rounded=0;orthogonalLoop=1;jettySize=auto;html=1;exitX=0.25;exitY=0;exitDx=0;exitDy=0;entryX=0.5;entryY=1;entryDx=0;entryDy=0;" edge="1" parent="WIyWlLk6GJQsqaUBKTNV-1" source="u2L9WDZnZTv7yTqLHQJL-9" target="dW6EWE0Wd8XrFZfCWDjQ-12">
          <mxGeometry relative="1" as="geometry" />
        </mxCell>
        <mxCell id="u2L9WDZnZTv7yTqLHQJL-27" style="edgeStyle=orthogonalEdgeStyle;rounded=0;orthogonalLoop=1;jettySize=auto;html=1;exitX=0.75;exitY=0;exitDx=0;exitDy=0;entryX=0.5;entryY=1;entryDx=0;entryDy=0;" edge="1" parent="WIyWlLk6GJQsqaUBKTNV-1" source="u2L9WDZnZTv7yTqLHQJL-9" target="dW6EWE0Wd8XrFZfCWDjQ-11">
          <mxGeometry relative="1" as="geometry" />
        </mxCell>
        <mxCell id="u2L9WDZnZTv7yTqLHQJL-28" style="edgeStyle=orthogonalEdgeStyle;rounded=0;orthogonalLoop=1;jettySize=auto;html=1;exitX=1;exitY=0;exitDx=0;exitDy=0;entryX=0.5;entryY=1;entryDx=0;entryDy=0;" edge="1" parent="WIyWlLk6GJQsqaUBKTNV-1" source="u2L9WDZnZTv7yTqLHQJL-9" target="dW6EWE0Wd8XrFZfCWDjQ-10">
          <mxGeometry relative="1" as="geometry" />
        </mxCell>
        <mxCell id="u2L9WDZnZTv7yTqLHQJL-34" style="edgeStyle=orthogonalEdgeStyle;rounded=0;orthogonalLoop=1;jettySize=auto;html=1;exitX=0;exitY=1;exitDx=0;exitDy=0;entryX=0.5;entryY=0;entryDx=0;entryDy=0;" edge="1" parent="WIyWlLk6GJQsqaUBKTNV-1" source="u2L9WDZnZTv7yTqLHQJL-9" target="dW6EWE0Wd8XrFZfCWDjQ-13">
          <mxGeometry relative="1" as="geometry" />
        </mxCell>
        <mxCell id="u2L9WDZnZTv7yTqLHQJL-36" style="edgeStyle=orthogonalEdgeStyle;rounded=0;orthogonalLoop=1;jettySize=auto;html=1;exitX=0.25;exitY=1;exitDx=0;exitDy=0;entryX=0.5;entryY=0;entryDx=0;entryDy=0;" edge="1" parent="WIyWlLk6GJQsqaUBKTNV-1" source="u2L9WDZnZTv7yTqLHQJL-9" target="dW6EWE0Wd8XrFZfCWDjQ-9">
          <mxGeometry relative="1" as="geometry" />
        </mxCell>
        <mxCell id="u2L9WDZnZTv7yTqLHQJL-42" style="edgeStyle=orthogonalEdgeStyle;rounded=0;orthogonalLoop=1;jettySize=auto;html=1;exitX=0.5;exitY=1;exitDx=0;exitDy=0;entryX=0.5;entryY=0;entryDx=0;entryDy=0;" edge="1" parent="WIyWlLk6GJQsqaUBKTNV-1" source="u2L9WDZnZTv7yTqLHQJL-9" target="u2L9WDZnZTv7yTqLHQJL-39">
          <mxGeometry relative="1" as="geometry" />
        </mxCell>
        <mxCell id="u2L9WDZnZTv7yTqLHQJL-43" style="edgeStyle=orthogonalEdgeStyle;rounded=0;orthogonalLoop=1;jettySize=auto;html=1;exitX=0.75;exitY=1;exitDx=0;exitDy=0;entryX=0;entryY=0;entryDx=0;entryDy=0;" edge="1" parent="WIyWlLk6GJQsqaUBKTNV-1" source="u2L9WDZnZTv7yTqLHQJL-9" target="u2L9WDZnZTv7yTqLHQJL-40">
          <mxGeometry relative="1" as="geometry" />
        </mxCell>
        <mxCell id="u2L9WDZnZTv7yTqLHQJL-63" style="edgeStyle=orthogonalEdgeStyle;rounded=0;orthogonalLoop=1;jettySize=auto;html=1;exitX=0;exitY=0.25;exitDx=0;exitDy=0;entryX=0.5;entryY=1;entryDx=0;entryDy=0;" edge="1" parent="WIyWlLk6GJQsqaUBKTNV-1" source="u2L9WDZnZTv7yTqLHQJL-9" target="u2L9WDZnZTv7yTqLHQJL-62">
          <mxGeometry relative="1" as="geometry" />
        </mxCell>
        <mxCell id="u2L9WDZnZTv7yTqLHQJL-9" value="" style="rounded=1;whiteSpace=wrap;html=1;" vertex="1" parent="WIyWlLk6GJQsqaUBKTNV-1">
          <mxGeometry x="-930" y="270" width="120" height="60" as="geometry" />
        </mxCell>
        <mxCell id="6Nvl_KIDncAve11HKfWS-37" style="edgeStyle=orthogonalEdgeStyle;rounded=0;orthogonalLoop=1;jettySize=auto;html=1;exitX=0;exitY=0;exitDx=0;exitDy=0;entryX=0.5;entryY=1;entryDx=0;entryDy=0;" edge="1" parent="WIyWlLk6GJQsqaUBKTNV-1" source="u2L9WDZnZTv7yTqLHQJL-10" target="6Nvl_KIDncAve11HKfWS-35">
          <mxGeometry relative="1" as="geometry" />
        </mxCell>
        <mxCell id="u2L9WDZnZTv7yTqLHQJL-72" style="edgeStyle=orthogonalEdgeStyle;rounded=0;orthogonalLoop=1;jettySize=auto;html=1;exitX=0.75;exitY=0;exitDx=0;exitDy=0;entryX=0;entryY=1;entryDx=0;entryDy=0;" edge="1" parent="WIyWlLk6GJQsqaUBKTNV-1" source="u2L9WDZnZTv7yTqLHQJL-10" target="u2L9WDZnZTv7yTqLHQJL-71">
          <mxGeometry relative="1" as="geometry" />
        </mxCell>
        <mxCell id="u2L9WDZnZTv7yTqLHQJL-75" style="edgeStyle=orthogonalEdgeStyle;rounded=0;orthogonalLoop=1;jettySize=auto;html=1;exitX=1;exitY=0.25;exitDx=0;exitDy=0;" edge="1" parent="WIyWlLk6GJQsqaUBKTNV-1" source="u2L9WDZnZTv7yTqLHQJL-10">
          <mxGeometry relative="1" as="geometry">
            <mxPoint x="-52.5" y="844.6666666666667" as="targetPoint" />
          </mxGeometry>
        </mxCell>
        <mxCell id="dW6EWE0Wd8XrFZfCWDjQ-47" style="edgeStyle=none;rounded=0;orthogonalLoop=1;jettySize=auto;html=1;exitX=0;exitY=0.75;exitDx=0;exitDy=0;entryX=1;entryY=0.5;entryDx=0;entryDy=0;elbow=vertical;" edge="1" parent="WIyWlLk6GJQsqaUBKTNV-1" source="u2L9WDZnZTv7yTqLHQJL-10" target="dW6EWE0Wd8XrFZfCWDjQ-46">
          <mxGeometry relative="1" as="geometry" />
        </mxCell>
        <mxCell id="u2L9WDZnZTv7yTqLHQJL-10" value="" style="rounded=1;whiteSpace=wrap;html=1;" vertex="1" parent="WIyWlLk6GJQsqaUBKTNV-1">
          <mxGeometry x="-162.5" y="835" width="90" height="40" as="geometry" />
        </mxCell>
        <mxCell id="u2L9WDZnZTv7yTqLHQJL-11" value="Endereço" style="text;html=1;align=center;verticalAlign=middle;whiteSpace=wrap;rounded=0;" vertex="1" parent="WIyWlLk6GJQsqaUBKTNV-1">
          <mxGeometry x="-900" y="285" width="60" height="30" as="geometry" />
        </mxCell>
        <mxCell id="dW6EWE0Wd8XrFZfCWDjQ-1" value="Cartão" style="text;html=1;align=center;verticalAlign=middle;whiteSpace=wrap;rounded=0;" vertex="1" parent="WIyWlLk6GJQsqaUBKTNV-1">
          <mxGeometry x="-147.5" y="840" width="60" height="30" as="geometry" />
        </mxCell>
        <mxCell id="dW6EWE0Wd8XrFZfCWDjQ-2" value="Instituição&lt;div&gt;Física&lt;/div&gt;" style="text;html=1;align=center;verticalAlign=middle;whiteSpace=wrap;rounded=0;" vertex="1" parent="WIyWlLk6GJQsqaUBKTNV-1">
          <mxGeometry x="-535" y="427.5" width="60" height="30" as="geometry" />
        </mxCell>
        <mxCell id="dW6EWE0Wd8XrFZfCWDjQ-9" value="" style="ellipse;whiteSpace=wrap;html=1;aspect=fixed;" vertex="1" parent="WIyWlLk6GJQsqaUBKTNV-1">
          <mxGeometry x="-920" y="370" width="20" height="20" as="geometry" />
        </mxCell>
        <mxCell id="dW6EWE0Wd8XrFZfCWDjQ-10" value="" style="ellipse;whiteSpace=wrap;html=1;aspect=fixed;" vertex="1" parent="WIyWlLk6GJQsqaUBKTNV-1">
          <mxGeometry x="-760" y="260" width="20" height="20" as="geometry" />
        </mxCell>
        <mxCell id="dW6EWE0Wd8XrFZfCWDjQ-11" value="" style="ellipse;whiteSpace=wrap;html=1;aspect=fixed;" vertex="1" parent="WIyWlLk6GJQsqaUBKTNV-1">
          <mxGeometry x="-840" y="230" width="20" height="20" as="geometry" />
        </mxCell>
        <mxCell id="dW6EWE0Wd8XrFZfCWDjQ-12" value="" style="ellipse;whiteSpace=wrap;html=1;aspect=fixed;" vertex="1" parent="WIyWlLk6GJQsqaUBKTNV-1">
          <mxGeometry x="-900" y="230" width="20" height="20" as="geometry" />
        </mxCell>
        <mxCell id="dW6EWE0Wd8XrFZfCWDjQ-13" value="" style="ellipse;whiteSpace=wrap;html=1;aspect=fixed;" vertex="1" parent="WIyWlLk6GJQsqaUBKTNV-1">
          <mxGeometry x="-1000" y="340" width="20" height="20" as="geometry" />
        </mxCell>
        <mxCell id="6Nvl_KIDncAve11HKfWS-4" value="" style="ellipse;whiteSpace=wrap;html=1;aspect=fixed;" vertex="1" parent="WIyWlLk6GJQsqaUBKTNV-1">
          <mxGeometry x="-507.5" y="670" width="20" height="20" as="geometry" />
        </mxCell>
        <mxCell id="6Nvl_KIDncAve11HKfWS-6" value="" style="ellipse;whiteSpace=wrap;html=1;aspect=fixed;" vertex="1" parent="WIyWlLk6GJQsqaUBKTNV-1">
          <mxGeometry x="-577.5" y="645" width="25" height="25" as="geometry" />
        </mxCell>
        <mxCell id="6Nvl_KIDncAve11HKfWS-7" value="CNPJ" style="text;html=1;align=center;verticalAlign=middle;whiteSpace=wrap;rounded=0;" vertex="1" parent="WIyWlLk6GJQsqaUBKTNV-1">
          <mxGeometry x="-512.5" y="650" width="60" height="30" as="geometry" />
        </mxCell>
        <mxCell id="dW6EWE0Wd8XrFZfCWDjQ-25" value="CEP" style="text;html=1;align=center;verticalAlign=middle;whiteSpace=wrap;rounded=0;" vertex="1" parent="WIyWlLk6GJQsqaUBKTNV-1">
          <mxGeometry x="-1005" y="367.5" width="30" height="30" as="geometry" />
        </mxCell>
        <mxCell id="6Nvl_KIDncAve11HKfWS-13" value="Nome" style="text;html=1;align=center;verticalAlign=middle;whiteSpace=wrap;rounded=0;" vertex="1" parent="WIyWlLk6GJQsqaUBKTNV-1">
          <mxGeometry x="-595" y="620" width="60" height="30" as="geometry" />
        </mxCell>
        <mxCell id="dW6EWE0Wd8XrFZfCWDjQ-26" value="Estado" style="text;html=1;align=center;verticalAlign=middle;whiteSpace=wrap;rounded=0;" vertex="1" parent="WIyWlLk6GJQsqaUBKTNV-1">
          <mxGeometry x="-920" y="200" width="60" height="30" as="geometry" />
        </mxCell>
        <mxCell id="dW6EWE0Wd8XrFZfCWDjQ-27" value="Cidade" style="text;html=1;align=center;verticalAlign=middle;whiteSpace=wrap;rounded=0;" vertex="1" parent="WIyWlLk6GJQsqaUBKTNV-1">
          <mxGeometry x="-890" y="390" width="60" height="30" as="geometry" />
        </mxCell>
        <mxCell id="6Nvl_KIDncAve11HKfWS-16" value="Telefone" style="text;html=1;align=center;verticalAlign=middle;whiteSpace=wrap;rounded=0;" vertex="1" parent="WIyWlLk6GJQsqaUBKTNV-1">
          <mxGeometry x="-532.5" y="615" width="60" height="30" as="geometry" />
        </mxCell>
        <mxCell id="dW6EWE0Wd8XrFZfCWDjQ-30" value="Número" style="text;html=1;align=center;verticalAlign=middle;whiteSpace=wrap;rounded=0;" vertex="1" parent="WIyWlLk6GJQsqaUBKTNV-1">
          <mxGeometry x="-860" y="200" width="60" height="30" as="geometry" />
        </mxCell>
        <mxCell id="dW6EWE0Wd8XrFZfCWDjQ-31" value="Complemento" style="text;html=1;align=center;verticalAlign=middle;whiteSpace=wrap;rounded=0;" vertex="1" parent="WIyWlLk6GJQsqaUBKTNV-1">
          <mxGeometry x="-780" y="230" width="60" height="30" as="geometry" />
        </mxCell>
        <mxCell id="6Nvl_KIDncAve11HKfWS-15" value="" style="ellipse;whiteSpace=wrap;html=1;aspect=fixed;" vertex="1" parent="WIyWlLk6GJQsqaUBKTNV-1">
          <mxGeometry x="-527.5" y="640" width="20" height="20" as="geometry" />
        </mxCell>
        <mxCell id="u2L9WDZnZTv7yTqLHQJL-39" value="" style="ellipse;whiteSpace=wrap;html=1;aspect=fixed;" vertex="1" parent="WIyWlLk6GJQsqaUBKTNV-1">
          <mxGeometry x="-870" y="370" width="20" height="20" as="geometry" />
        </mxCell>
        <mxCell id="u2L9WDZnZTv7yTqLHQJL-40" value="" style="ellipse;whiteSpace=wrap;html=1;aspect=fixed;" vertex="1" parent="WIyWlLk6GJQsqaUBKTNV-1">
          <mxGeometry x="-790" y="375" width="20" height="20" as="geometry" />
        </mxCell>
        <mxCell id="6Nvl_KIDncAve11HKfWS-18" style="edgeStyle=orthogonalEdgeStyle;rounded=0;orthogonalLoop=1;jettySize=auto;html=1;exitX=0.5;exitY=0;exitDx=0;exitDy=0;entryX=0.38;entryY=0.98;entryDx=0;entryDy=0;entryPerimeter=0;" edge="1" parent="WIyWlLk6GJQsqaUBKTNV-1" source="u2L9WDZnZTv7yTqLHQJL-0" target="6Nvl_KIDncAve11HKfWS-15">
          <mxGeometry relative="1" as="geometry" />
        </mxCell>
        <mxCell id="6Nvl_KIDncAve11HKfWS-20" value="" style="ellipse;whiteSpace=wrap;html=1;aspect=fixed;" vertex="1" parent="WIyWlLk6GJQsqaUBKTNV-1">
          <mxGeometry x="-402.5" y="430" width="25" height="25" as="geometry" />
        </mxCell>
        <mxCell id="6Nvl_KIDncAve11HKfWS-21" value="IdResponsável" style="text;html=1;align=center;verticalAlign=middle;whiteSpace=wrap;rounded=0;" vertex="1" parent="WIyWlLk6GJQsqaUBKTNV-1">
          <mxGeometry x="-413" y="405" width="60" height="25" as="geometry" />
        </mxCell>
        <mxCell id="6Nvl_KIDncAve11HKfWS-14" style="edgeStyle=orthogonalEdgeStyle;rounded=0;orthogonalLoop=1;jettySize=auto;html=1;exitX=0.25;exitY=0;exitDx=0;exitDy=0;entryX=0.74;entryY=0.9;entryDx=0;entryDy=0;entryPerimeter=0;" edge="1" parent="WIyWlLk6GJQsqaUBKTNV-1" source="u2L9WDZnZTv7yTqLHQJL-0" target="6Nvl_KIDncAve11HKfWS-6">
          <mxGeometry relative="1" as="geometry" />
        </mxCell>
        <mxCell id="6Nvl_KIDncAve11HKfWS-27" value="" style="ellipse;whiteSpace=wrap;html=1;aspect=fixed;" vertex="1" parent="WIyWlLk6GJQsqaUBKTNV-1">
          <mxGeometry x="-622.5" y="670" width="20" height="20" as="geometry" />
        </mxCell>
        <mxCell id="dW6EWE0Wd8XrFZfCWDjQ-28" value="Bairro" style="text;html=1;align=center;verticalAlign=middle;whiteSpace=wrap;rounded=0;" vertex="1" parent="WIyWlLk6GJQsqaUBKTNV-1">
          <mxGeometry x="-810" y="395" width="60" height="30" as="geometry" />
        </mxCell>
        <mxCell id="6Nvl_KIDncAve11HKfWS-29" value="Id" style="text;html=1;align=center;verticalAlign=middle;whiteSpace=wrap;rounded=0;" vertex="1" parent="WIyWlLk6GJQsqaUBKTNV-1">
          <mxGeometry x="-642.5" y="650" width="60" height="30" as="geometry" />
        </mxCell>
        <mxCell id="dW6EWE0Wd8XrFZfCWDjQ-29" value="Rua" style="text;html=1;align=center;verticalAlign=middle;whiteSpace=wrap;rounded=0;" vertex="1" parent="WIyWlLk6GJQsqaUBKTNV-1">
          <mxGeometry x="-940" y="400" width="60" height="30" as="geometry" />
        </mxCell>
        <mxCell id="u2L9WDZnZTv7yTqLHQJL-48" style="edgeStyle=orthogonalEdgeStyle;rounded=0;orthogonalLoop=1;jettySize=auto;html=1;exitX=0;exitY=0.5;exitDx=0;exitDy=0;entryX=1;entryY=0.75;entryDx=0;entryDy=0;" edge="1" parent="WIyWlLk6GJQsqaUBKTNV-1" source="u2L9WDZnZTv7yTqLHQJL-44" target="u2L9WDZnZTv7yTqLHQJL-9">
          <mxGeometry relative="1" as="geometry" />
        </mxCell>
        <mxCell id="u2L9WDZnZTv7yTqLHQJL-44" value="" style="rhombus;whiteSpace=wrap;html=1;" vertex="1" parent="WIyWlLk6GJQsqaUBKTNV-1">
          <mxGeometry x="-715" y="335" width="110" height="55" as="geometry" />
        </mxCell>
        <mxCell id="u2L9WDZnZTv7yTqLHQJL-45" value="POSSUI" style="text;html=1;align=center;verticalAlign=middle;whiteSpace=wrap;rounded=0;" vertex="1" parent="WIyWlLk6GJQsqaUBKTNV-1">
          <mxGeometry x="-690" y="347.5" width="60" height="30" as="geometry" />
        </mxCell>
        <mxCell id="u2L9WDZnZTv7yTqLHQJL-49" value="1,1" style="text;html=1;align=center;verticalAlign=middle;whiteSpace=wrap;rounded=0;" vertex="1" parent="WIyWlLk6GJQsqaUBKTNV-1">
          <mxGeometry x="-620" y="450" width="60" height="30" as="geometry" />
        </mxCell>
        <mxCell id="u2L9WDZnZTv7yTqLHQJL-50" value="1,1" style="text;html=1;align=center;verticalAlign=middle;whiteSpace=wrap;rounded=0;" vertex="1" parent="WIyWlLk6GJQsqaUBKTNV-1">
          <mxGeometry x="-760" y="325" width="60" height="30" as="geometry" />
        </mxCell>
        <mxCell id="6Nvl_KIDncAve11HKfWS-35" value="" style="ellipse;whiteSpace=wrap;html=1;aspect=fixed;" vertex="1" parent="WIyWlLk6GJQsqaUBKTNV-1">
          <mxGeometry x="-182.5" y="790" width="25" height="25" as="geometry" />
        </mxCell>
        <mxCell id="6Nvl_KIDncAve11HKfWS-36" value="IdResponsável" style="text;html=1;align=center;verticalAlign=middle;whiteSpace=wrap;rounded=0;" vertex="1" parent="WIyWlLk6GJQsqaUBKTNV-1">
          <mxGeometry x="-207.5" y="770" width="60" height="25" as="geometry" />
        </mxCell>
        <mxCell id="6Nvl_KIDncAve11HKfWS-45" style="edgeStyle=orthogonalEdgeStyle;rounded=0;orthogonalLoop=1;jettySize=auto;html=1;exitX=0.5;exitY=1;exitDx=0;exitDy=0;entryX=0;entryY=0.5;entryDx=0;entryDy=0;" edge="1" parent="WIyWlLk6GJQsqaUBKTNV-1" source="u2L9WDZnZTv7yTqLHQJL-54" target="u2L9WDZnZTv7yTqLHQJL-0">
          <mxGeometry relative="1" as="geometry" />
        </mxCell>
        <mxCell id="u2L9WDZnZTv7yTqLHQJL-54" value="" style="rhombus;whiteSpace=wrap;html=1;" vertex="1" parent="WIyWlLk6GJQsqaUBKTNV-1">
          <mxGeometry x="-730" y="550" width="100" height="60" as="geometry" />
        </mxCell>
        <mxCell id="u2L9WDZnZTv7yTqLHQJL-58" value="" style="ellipse;whiteSpace=wrap;html=1;aspect=fixed;" vertex="1" parent="WIyWlLk6GJQsqaUBKTNV-1">
          <mxGeometry x="-562.5" y="350" width="25" height="25" as="geometry" />
        </mxCell>
        <mxCell id="u2L9WDZnZTv7yTqLHQJL-61" value="Id" style="text;html=1;align=center;verticalAlign=middle;whiteSpace=wrap;rounded=0;" vertex="1" parent="WIyWlLk6GJQsqaUBKTNV-1">
          <mxGeometry x="-562.5" y="322.5" width="30" height="25" as="geometry" />
        </mxCell>
        <mxCell id="u2L9WDZnZTv7yTqLHQJL-62" value="" style="ellipse;whiteSpace=wrap;html=1;aspect=fixed;" vertex="1" parent="WIyWlLk6GJQsqaUBKTNV-1">
          <mxGeometry x="-990" y="235" width="20" height="20" as="geometry" />
        </mxCell>
        <mxCell id="u2L9WDZnZTv7yTqLHQJL-64" value="IdInstituição" style="text;html=1;align=center;verticalAlign=middle;whiteSpace=wrap;rounded=0;" vertex="1" parent="WIyWlLk6GJQsqaUBKTNV-1">
          <mxGeometry x="-1010" y="205" width="60" height="30" as="geometry" />
        </mxCell>
        <mxCell id="u2L9WDZnZTv7yTqLHQJL-66" value="" style="ellipse;whiteSpace=wrap;html=1;aspect=fixed;" vertex="1" parent="WIyWlLk6GJQsqaUBKTNV-1">
          <mxGeometry x="-515" y="352.5" width="25" height="25" as="geometry" />
        </mxCell>
        <mxCell id="u2L9WDZnZTv7yTqLHQJL-70" value="Nome" style="text;html=1;align=center;verticalAlign=middle;whiteSpace=wrap;rounded=0;" vertex="1" parent="WIyWlLk6GJQsqaUBKTNV-1">
          <mxGeometry x="-532.5" y="322.5" width="60" height="30" as="geometry" />
        </mxCell>
        <mxCell id="dW6EWE0Wd8XrFZfCWDjQ-39" style="edgeStyle=none;rounded=0;orthogonalLoop=1;jettySize=auto;html=1;elbow=vertical;" edge="1" parent="WIyWlLk6GJQsqaUBKTNV-1" source="6Nvl_KIDncAve11HKfWS-38" target="6Nvl_KIDncAve11HKfWS-39">
          <mxGeometry relative="1" as="geometry" />
        </mxCell>
        <mxCell id="6Nvl_KIDncAve11HKfWS-38" value="" style="ellipse;whiteSpace=wrap;html=1;aspect=fixed;" vertex="1" parent="WIyWlLk6GJQsqaUBKTNV-1">
          <mxGeometry x="-615" y="790" width="20" height="20" as="geometry" />
        </mxCell>
        <mxCell id="6Nvl_KIDncAve11HKfWS-39" value="Email" style="text;html=1;align=center;verticalAlign=middle;whiteSpace=wrap;rounded=0;" vertex="1" parent="WIyWlLk6GJQsqaUBKTNV-1">
          <mxGeometry x="-635" y="800" width="60" height="30" as="geometry" />
        </mxCell>
        <mxCell id="6Nvl_KIDncAve11HKfWS-43" value="1,1" style="text;html=1;align=center;verticalAlign=middle;whiteSpace=wrap;rounded=0;" vertex="1" parent="WIyWlLk6GJQsqaUBKTNV-1">
          <mxGeometry x="-595" y="510" width="60" height="30" as="geometry" />
        </mxCell>
        <mxCell id="dW6EWE0Wd8XrFZfCWDjQ-38" style="edgeStyle=none;rounded=0;orthogonalLoop=1;jettySize=auto;html=1;exitX=0.5;exitY=0;exitDx=0;exitDy=0;elbow=vertical;" edge="1" parent="WIyWlLk6GJQsqaUBKTNV-1" source="dW6EWE0Wd8XrFZfCWDjQ-36" target="dW6EWE0Wd8XrFZfCWDjQ-36">
          <mxGeometry relative="1" as="geometry" />
        </mxCell>
        <mxCell id="dW6EWE0Wd8XrFZfCWDjQ-36" value="" style="ellipse;whiteSpace=wrap;html=1;aspect=fixed;" vertex="1" parent="WIyWlLk6GJQsqaUBKTNV-1">
          <mxGeometry x="-547.5" y="790" width="20" height="20" as="geometry" />
        </mxCell>
        <mxCell id="dW6EWE0Wd8XrFZfCWDjQ-35" value="Senha" style="text;html=1;align=center;verticalAlign=middle;resizable=0;points=[];autosize=1;strokeColor=none;fillColor=none;" vertex="1" parent="WIyWlLk6GJQsqaUBKTNV-1">
          <mxGeometry x="-200" y="250" width="60" height="30" as="geometry" />
        </mxCell>
        <mxCell id="6Nvl_KIDncAve11HKfWS-44" value="POSSUI" style="text;html=1;align=center;verticalAlign=middle;whiteSpace=wrap;rounded=0;" vertex="1" parent="WIyWlLk6GJQsqaUBKTNV-1">
          <mxGeometry x="-710" y="565" width="60" height="30" as="geometry" />
        </mxCell>
        <mxCell id="u2L9WDZnZTv7yTqLHQJL-71" value="" style="ellipse;whiteSpace=wrap;html=1;aspect=fixed;" vertex="1" parent="WIyWlLk6GJQsqaUBKTNV-1">
          <mxGeometry x="-112.5" y="795" width="25" height="25" as="geometry" />
        </mxCell>
        <mxCell id="6Nvl_KIDncAve11HKfWS-46" value="1,1" style="text;html=1;align=center;verticalAlign=middle;whiteSpace=wrap;rounded=0;" vertex="1" parent="WIyWlLk6GJQsqaUBKTNV-1">
          <mxGeometry x="-730" y="695" width="40" height="30" as="geometry" />
        </mxCell>
        <mxCell id="u2L9WDZnZTv7yTqLHQJL-73" value="CV" style="text;html=1;align=center;verticalAlign=middle;whiteSpace=wrap;rounded=0;" vertex="1" parent="WIyWlLk6GJQsqaUBKTNV-1">
          <mxGeometry x="-112.5" y="770" width="30" height="30" as="geometry" />
        </mxCell>
        <mxCell id="u2L9WDZnZTv7yTqLHQJL-76" value="" style="ellipse;whiteSpace=wrap;html=1;aspect=fixed;" vertex="1" parent="WIyWlLk6GJQsqaUBKTNV-1">
          <mxGeometry x="-55" y="835" width="25" height="25" as="geometry" />
        </mxCell>
        <mxCell id="u2L9WDZnZTv7yTqLHQJL-77" value="DataVenc" style="text;html=1;align=center;verticalAlign=middle;whiteSpace=wrap;rounded=0;" vertex="1" parent="WIyWlLk6GJQsqaUBKTNV-1">
          <mxGeometry x="-30" y="832.5" width="60" height="30" as="geometry" />
        </mxCell>
        <mxCell id="u2L9WDZnZTv7yTqLHQJL-79" value="" style="rhombus;whiteSpace=wrap;html=1;" vertex="1" parent="WIyWlLk6GJQsqaUBKTNV-1">
          <mxGeometry x="-325" y="710" width="100" height="60" as="geometry" />
        </mxCell>
        <mxCell id="u2L9WDZnZTv7yTqLHQJL-82" value="POSSUI" style="text;html=1;align=center;verticalAlign=middle;whiteSpace=wrap;rounded=0;" vertex="1" parent="WIyWlLk6GJQsqaUBKTNV-1">
          <mxGeometry x="-305" y="725" width="60" height="30" as="geometry" />
        </mxCell>
        <mxCell id="6Nvl_KIDncAve11HKfWS-48" value="" style="ellipse;whiteSpace=wrap;html=1;aspect=fixed;" vertex="1" parent="WIyWlLk6GJQsqaUBKTNV-1">
          <mxGeometry x="-225" y="225" width="25" height="25" as="geometry" />
        </mxCell>
        <mxCell id="6Nvl_KIDncAve11HKfWS-49" value="" style="ellipse;whiteSpace=wrap;html=1;aspect=fixed;" vertex="1" parent="WIyWlLk6GJQsqaUBKTNV-1">
          <mxGeometry x="-295" y="205" width="20" height="20" as="geometry" />
        </mxCell>
        <mxCell id="6Nvl_KIDncAve11HKfWS-50" value="Id" style="text;html=1;align=center;verticalAlign=middle;whiteSpace=wrap;rounded=0;" vertex="1" parent="WIyWlLk6GJQsqaUBKTNV-1">
          <mxGeometry x="-315" y="190" width="30" height="25" as="geometry" />
        </mxCell>
        <mxCell id="6Nvl_KIDncAve11HKfWS-51" value="" style="ellipse;whiteSpace=wrap;html=1;aspect=fixed;" vertex="1" parent="WIyWlLk6GJQsqaUBKTNV-1">
          <mxGeometry x="-335" y="235" width="20" height="20" as="geometry" />
        </mxCell>
        <mxCell id="u2L9WDZnZTv7yTqLHQJL-83" value="1,n" style="text;html=1;align=center;verticalAlign=middle;whiteSpace=wrap;rounded=0;" vertex="1" parent="WIyWlLk6GJQsqaUBKTNV-1">
          <mxGeometry x="-162.5" y="710" width="40" height="30" as="geometry" />
        </mxCell>
        <mxCell id="6Nvl_KIDncAve11HKfWS-52" value="IdInstituição" style="text;html=1;align=center;verticalAlign=middle;whiteSpace=wrap;rounded=0;" vertex="1" parent="WIyWlLk6GJQsqaUBKTNV-1">
          <mxGeometry x="-370" y="210" width="60" height="30" as="geometry" />
        </mxCell>
        <mxCell id="u2L9WDZnZTv7yTqLHQJL-84" value="1,1" style="text;html=1;align=center;verticalAlign=middle;whiteSpace=wrap;rounded=0;" vertex="1" parent="WIyWlLk6GJQsqaUBKTNV-1">
          <mxGeometry x="-447.5" y="750" width="40" height="30" as="geometry" />
        </mxCell>
        <mxCell id="6Nvl_KIDncAve11HKfWS-57" value="" style="ellipse;whiteSpace=wrap;html=1;aspect=fixed;" vertex="1" parent="WIyWlLk6GJQsqaUBKTNV-1">
          <mxGeometry x="-262.5" y="200" width="25" height="25" as="geometry" />
        </mxCell>
        <mxCell id="6Nvl_KIDncAve11HKfWS-58" value="Nome" style="text;html=1;align=center;verticalAlign=middle;whiteSpace=wrap;rounded=0;" vertex="1" parent="WIyWlLk6GJQsqaUBKTNV-1">
          <mxGeometry x="-280" y="175" width="60" height="30" as="geometry" />
        </mxCell>
        <mxCell id="6Nvl_KIDncAve11HKfWS-59" value="Email" style="text;html=1;align=center;verticalAlign=middle;whiteSpace=wrap;rounded=0;" vertex="1" parent="WIyWlLk6GJQsqaUBKTNV-1">
          <mxGeometry x="-220" y="210" width="60" height="30" as="geometry" />
        </mxCell>
        <mxCell id="6Nvl_KIDncAve11HKfWS-63" style="edgeStyle=none;rounded=0;orthogonalLoop=1;jettySize=auto;html=1;exitX=0.5;exitY=0;exitDx=0;exitDy=0;elbow=vertical;" edge="1" parent="WIyWlLk6GJQsqaUBKTNV-1" source="6Nvl_KIDncAve11HKfWS-64" target="6Nvl_KIDncAve11HKfWS-64">
          <mxGeometry relative="1" as="geometry" />
        </mxCell>
        <mxCell id="6Nvl_KIDncAve11HKfWS-64" value="" style="ellipse;whiteSpace=wrap;html=1;aspect=fixed;" vertex="1" parent="WIyWlLk6GJQsqaUBKTNV-1">
          <mxGeometry x="-200" y="270" width="20" height="20" as="geometry" />
        </mxCell>
        <mxCell id="6Nvl_KIDncAve11HKfWS-65" value="Senha" style="text;html=1;align=center;verticalAlign=middle;resizable=0;points=[];autosize=1;strokeColor=none;fillColor=none;" vertex="1" parent="WIyWlLk6GJQsqaUBKTNV-1">
          <mxGeometry x="-552.5" y="800" width="60" height="30" as="geometry" />
        </mxCell>
        <mxCell id="6Nvl_KIDncAve11HKfWS-70" style="edgeStyle=orthogonalEdgeStyle;rounded=0;orthogonalLoop=1;jettySize=auto;html=1;exitX=1;exitY=0.5;exitDx=0;exitDy=0;entryX=0.25;entryY=1;entryDx=0;entryDy=0;" edge="1" parent="WIyWlLk6GJQsqaUBKTNV-1" source="6Nvl_KIDncAve11HKfWS-67" target="u2L9WDZnZTv7yTqLHQJL-4">
          <mxGeometry relative="1" as="geometry" />
        </mxCell>
        <mxCell id="6Nvl_KIDncAve11HKfWS-67" value="" style="rhombus;whiteSpace=wrap;html=1;" vertex="1" parent="WIyWlLk6GJQsqaUBKTNV-1">
          <mxGeometry x="-440" y="322.5" width="100" height="60" as="geometry" />
        </mxCell>
        <mxCell id="6Nvl_KIDncAve11HKfWS-68" value="POSSUI" style="text;html=1;align=center;verticalAlign=middle;whiteSpace=wrap;rounded=0;" vertex="1" parent="WIyWlLk6GJQsqaUBKTNV-1">
          <mxGeometry x="-420" y="337.5" width="60" height="30" as="geometry" />
        </mxCell>
        <mxCell id="dW6EWE0Wd8XrFZfCWDjQ-45" value="Número do cartão" style="text;html=1;align=center;verticalAlign=middle;resizable=0;points=[];autosize=1;strokeColor=none;fillColor=none;" vertex="1" parent="WIyWlLk6GJQsqaUBKTNV-1">
          <mxGeometry x="-302.5" y="820" width="120" height="30" as="geometry" />
        </mxCell>
        <mxCell id="6Nvl_KIDncAve11HKfWS-71" value="1,n" style="text;html=1;align=center;verticalAlign=middle;whiteSpace=wrap;rounded=0;" vertex="1" parent="WIyWlLk6GJQsqaUBKTNV-1">
          <mxGeometry x="-345" y="355" width="40" height="30" as="geometry" />
        </mxCell>
        <mxCell id="6Nvl_KIDncAve11HKfWS-72" value="1,1" style="text;html=1;align=center;verticalAlign=middle;whiteSpace=wrap;rounded=0;" vertex="1" parent="WIyWlLk6GJQsqaUBKTNV-1">
          <mxGeometry x="-470" y="325" width="40" height="30" as="geometry" />
        </mxCell>
        <mxCell id="dW6EWE0Wd8XrFZfCWDjQ-46" value="" style="ellipse;whiteSpace=wrap;html=1;aspect=fixed;" vertex="1" parent="WIyWlLk6GJQsqaUBKTNV-1">
          <mxGeometry x="-207.5" y="847.5" width="25" height="25" as="geometry" />
        </mxCell>
        <mxCell id="u2L9WDZnZTv7yTqLHQJL-85" value="" style="rounded=1;whiteSpace=wrap;html=1;" vertex="1" parent="WIyWlLk6GJQsqaUBKTNV-1">
          <mxGeometry x="30" y="330" width="80" height="37.5" as="geometry" />
        </mxCell>
        <mxCell id="u2L9WDZnZTv7yTqLHQJL-86" value="Laudo" style="text;html=1;align=center;verticalAlign=middle;whiteSpace=wrap;rounded=0;" vertex="1" parent="WIyWlLk6GJQsqaUBKTNV-1">
          <mxGeometry x="40" y="333.75" width="60" height="30" as="geometry" />
        </mxCell>
        <mxCell id="6Nvl_KIDncAve11HKfWS-88" style="edgeStyle=orthogonalEdgeStyle;rounded=0;orthogonalLoop=1;jettySize=auto;html=1;exitX=1;exitY=0.5;exitDx=0;exitDy=0;entryX=0;entryY=0.75;entryDx=0;entryDy=0;" edge="1" parent="WIyWlLk6GJQsqaUBKTNV-1" source="u2L9WDZnZTv7yTqLHQJL-87" target="u2L9WDZnZTv7yTqLHQJL-85">
          <mxGeometry relative="1" as="geometry" />
        </mxCell>
        <mxCell id="u2L9WDZnZTv7yTqLHQJL-87" value="" style="rhombus;whiteSpace=wrap;html=1;" vertex="1" parent="WIyWlLk6GJQsqaUBKTNV-1">
          <mxGeometry x="-160" y="350" width="110" height="60" as="geometry" />
        </mxCell>
        <mxCell id="u2L9WDZnZTv7yTqLHQJL-88" value="Faz" style="text;html=1;align=center;verticalAlign=middle;whiteSpace=wrap;rounded=0;" vertex="1" parent="WIyWlLk6GJQsqaUBKTNV-1">
          <mxGeometry x="-135" y="365" width="60" height="30" as="geometry" />
        </mxCell>
        <mxCell id="u2L9WDZnZTv7yTqLHQJL-91" value="1,n" style="text;html=1;align=center;verticalAlign=middle;whiteSpace=wrap;rounded=0;" vertex="1" parent="WIyWlLk6GJQsqaUBKTNV-1">
          <mxGeometry x="-20" y="330" width="40" height="30" as="geometry" />
        </mxCell>
        <mxCell id="u2L9WDZnZTv7yTqLHQJL-92" value="1,n" style="text;html=1;align=center;verticalAlign=middle;whiteSpace=wrap;rounded=0;" vertex="1" parent="WIyWlLk6GJQsqaUBKTNV-1">
          <mxGeometry x="-250" y="333.75" width="40" height="30" as="geometry" />
        </mxCell>
        <mxCell id="u2L9WDZnZTv7yTqLHQJL-104" style="edgeStyle=orthogonalEdgeStyle;rounded=0;orthogonalLoop=1;jettySize=auto;html=1;exitX=0.25;exitY=0;exitDx=0;exitDy=0;entryX=0.5;entryY=1;entryDx=0;entryDy=0;" edge="1" parent="WIyWlLk6GJQsqaUBKTNV-1" source="u2L9WDZnZTv7yTqLHQJL-99" target="u2L9WDZnZTv7yTqLHQJL-102">
          <mxGeometry relative="1" as="geometry" />
        </mxCell>
        <mxCell id="dW6EWE0Wd8XrFZfCWDjQ-57" style="edgeStyle=orthogonalEdgeStyle;rounded=0;orthogonalLoop=1;jettySize=auto;html=1;exitX=1;exitY=0;exitDx=0;exitDy=0;entryX=0.5;entryY=1;entryDx=0;entryDy=0;elbow=vertical;" edge="1" parent="WIyWlLk6GJQsqaUBKTNV-1" source="u2L9WDZnZTv7yTqLHQJL-99" target="dW6EWE0Wd8XrFZfCWDjQ-56">
          <mxGeometry relative="1" as="geometry" />
        </mxCell>
        <mxCell id="6Nvl_KIDncAve11HKfWS-84" style="edgeStyle=orthogonalEdgeStyle;rounded=0;orthogonalLoop=1;jettySize=auto;html=1;exitX=0.75;exitY=0;exitDx=0;exitDy=0;entryX=0.5;entryY=1;entryDx=0;entryDy=0;" edge="1" parent="WIyWlLk6GJQsqaUBKTNV-1" source="u2L9WDZnZTv7yTqLHQJL-99" target="6Nvl_KIDncAve11HKfWS-83">
          <mxGeometry relative="1" as="geometry" />
        </mxCell>
        <mxCell id="u2L9WDZnZTv7yTqLHQJL-99" value="PLANO" style="rounded=1;whiteSpace=wrap;html=1;" vertex="1" parent="WIyWlLk6GJQsqaUBKTNV-1">
          <mxGeometry x="-188.5" y="555" width="108.5" height="45" as="geometry" />
        </mxCell>
        <mxCell id="6Nvl_KIDncAve11HKfWS-74" style="edgeStyle=orthogonalEdgeStyle;rounded=0;orthogonalLoop=1;jettySize=auto;html=1;exitX=1;exitY=0.5;exitDx=0;exitDy=0;entryX=0.372;entryY=0.075;entryDx=0;entryDy=0;entryPerimeter=0;" edge="1" parent="WIyWlLk6GJQsqaUBKTNV-1" source="u2L9WDZnZTv7yTqLHQJL-79" target="u2L9WDZnZTv7yTqLHQJL-10">
          <mxGeometry relative="1" as="geometry" />
        </mxCell>
        <mxCell id="u2L9WDZnZTv7yTqLHQJL-102" value="" style="ellipse;whiteSpace=wrap;html=1;aspect=fixed;" vertex="1" parent="WIyWlLk6GJQsqaUBKTNV-1">
          <mxGeometry x="-182.5" y="510" width="25" height="25" as="geometry" />
        </mxCell>
        <mxCell id="u2L9WDZnZTv7yTqLHQJL-103" value="Tipo" style="text;html=1;align=center;verticalAlign=middle;whiteSpace=wrap;rounded=0;" vertex="1" parent="WIyWlLk6GJQsqaUBKTNV-1">
          <mxGeometry x="-200" y="480" width="60" height="30" as="geometry" />
        </mxCell>
        <mxCell id="dW6EWE0Wd8XrFZfCWDjQ-53" style="edgeStyle=orthogonalEdgeStyle;rounded=0;orthogonalLoop=1;jettySize=auto;html=1;exitX=1;exitY=0.5;exitDx=0;exitDy=0;entryX=0;entryY=0.5;entryDx=0;entryDy=0;elbow=vertical;" edge="1" parent="WIyWlLk6GJQsqaUBKTNV-1" source="dW6EWE0Wd8XrFZfCWDjQ-50" target="u2L9WDZnZTv7yTqLHQJL-99">
          <mxGeometry relative="1" as="geometry" />
        </mxCell>
        <mxCell id="dW6EWE0Wd8XrFZfCWDjQ-50" value="" style="rhombus;whiteSpace=wrap;html=1;" vertex="1" parent="WIyWlLk6GJQsqaUBKTNV-1">
          <mxGeometry x="-370" y="525" width="100" height="60" as="geometry" />
        </mxCell>
        <mxCell id="6Nvl_KIDncAve11HKfWS-81" value="Normalidades" style="text;html=1;align=center;verticalAlign=middle;whiteSpace=wrap;rounded=0;" vertex="1" parent="WIyWlLk6GJQsqaUBKTNV-1">
          <mxGeometry x="-507.5" y="73.75" width="60" height="30" as="geometry" />
        </mxCell>
        <mxCell id="6Nvl_KIDncAve11HKfWS-82" style="edgeStyle=orthogonalEdgeStyle;rounded=0;orthogonalLoop=1;jettySize=auto;html=1;exitX=0.5;exitY=0;exitDx=0;exitDy=0;entryX=0.5;entryY=1;entryDx=0;entryDy=0;" edge="1" parent="WIyWlLk6GJQsqaUBKTNV-1" source="6Nvl_KIDncAve11HKfWS-76" target="6Nvl_KIDncAve11HKfWS-80">
          <mxGeometry relative="1" as="geometry" />
        </mxCell>
        <mxCell id="dW6EWE0Wd8XrFZfCWDjQ-54" value="DataTransação" style="text;html=1;align=center;verticalAlign=middle;resizable=0;points=[];autosize=1;strokeColor=none;fillColor=none;" vertex="1" parent="WIyWlLk6GJQsqaUBKTNV-1">
          <mxGeometry x="-75" y="482.5" width="110" height="30" as="geometry" />
        </mxCell>
        <mxCell id="6Nvl_KIDncAve11HKfWS-77" value="POSSUI" style="text;html=1;align=center;verticalAlign=middle;whiteSpace=wrap;rounded=0;" vertex="1" parent="WIyWlLk6GJQsqaUBKTNV-1">
          <mxGeometry x="-507.5" y="182.5" width="60" height="30" as="geometry" />
        </mxCell>
        <mxCell id="6Nvl_KIDncAve11HKfWS-76" value="" style="rhombus;whiteSpace=wrap;html=1;" vertex="1" parent="WIyWlLk6GJQsqaUBKTNV-1">
          <mxGeometry x="-532.5" y="170" width="110" height="55" as="geometry" />
        </mxCell>
        <mxCell id="dW6EWE0Wd8XrFZfCWDjQ-51" value="ADQUIRIR" style="text;html=1;align=center;verticalAlign=middle;whiteSpace=wrap;rounded=0;" vertex="1" parent="WIyWlLk6GJQsqaUBKTNV-1">
          <mxGeometry x="-350" y="540" width="60" height="30" as="geometry" />
        </mxCell>
        <mxCell id="6Nvl_KIDncAve11HKfWS-80" value="" style="rounded=1;whiteSpace=wrap;html=1;" vertex="1" parent="WIyWlLk6GJQsqaUBKTNV-1">
          <mxGeometry x="-517.5" y="70" width="80" height="37.5" as="geometry" />
        </mxCell>
        <mxCell id="dW6EWE0Wd8XrFZfCWDjQ-56" value="" style="ellipse;whiteSpace=wrap;html=1;aspect=fixed;" vertex="1" parent="WIyWlLk6GJQsqaUBKTNV-1">
          <mxGeometry x="-72.5" y="512.5" width="25" height="25" as="geometry" />
        </mxCell>
        <mxCell id="6Nvl_KIDncAve11HKfWS-83" value="" style="ellipse;whiteSpace=wrap;html=1;aspect=fixed;" vertex="1" parent="WIyWlLk6GJQsqaUBKTNV-1">
          <mxGeometry x="-110" y="510" width="25" height="25" as="geometry" />
        </mxCell>
        <mxCell id="6Nvl_KIDncAve11HKfWS-85" value="POSSUI" style="text;html=1;align=center;verticalAlign=middle;whiteSpace=wrap;rounded=0;" vertex="1" parent="WIyWlLk6GJQsqaUBKTNV-1">
          <mxGeometry x="-507.5" y="182.5" width="60" height="30" as="geometry" />
        </mxCell>
        <mxCell id="6Nvl_KIDncAve11HKfWS-86" value="Normalidades" style="text;html=1;align=center;verticalAlign=middle;whiteSpace=wrap;rounded=0;" vertex="1" parent="WIyWlLk6GJQsqaUBKTNV-1">
          <mxGeometry x="-507.5" y="73.75" width="60" height="30" as="geometry" />
        </mxCell>
        <mxCell id="xt8_wOZUKc_BIjXcb3N4-4" value="" style="edgeStyle=orthogonalEdgeStyle;rounded=0;orthogonalLoop=1;jettySize=auto;html=1;exitX=0;exitY=0.25;exitDx=0;exitDy=0;" edge="1" parent="WIyWlLk6GJQsqaUBKTNV-1" source="u2L9WDZnZTv7yTqLHQJL-4" target="xt8_wOZUKc_BIjXcb3N4-3">
          <mxGeometry relative="1" as="geometry">
            <mxPoint x="-380" y="280" as="targetPoint" />
            <mxPoint x="-335" y="283" as="sourcePoint" />
          </mxGeometry>
        </mxCell>
        <mxCell id="xt8_wOZUKc_BIjXcb3N4-3" value="" style="ellipse;whiteSpace=wrap;html=1;aspect=fixed;" vertex="1" parent="WIyWlLk6GJQsqaUBKTNV-1">
          <mxGeometry x="-402.5" y="265" width="25" height="25" as="geometry" />
        </mxCell>
        <mxCell id="xt8_wOZUKc_BIjXcb3N4-5" value="CPF" style="text;html=1;align=center;verticalAlign=middle;whiteSpace=wrap;rounded=0;" vertex="1" parent="WIyWlLk6GJQsqaUBKTNV-1">
          <mxGeometry x="-432.5" y="262.5" width="30" height="30" as="geometry" />
        </mxCell>
      </root>
    </mxGraphModel>
  </diagram>
</mxfile>
